<svg xmlns="http://www.w3.org/2000/svg" width="42.01" height="42.01" viewBox="0 0 42.01 42.01">
  <path id="Icon_awesome-headset" data-name="Icon awesome-headset" d="M15.754,17.067a2.626,2.626,0,0,0-2.626-2.626H11.815a5.251,5.251,0,0,0-5.251,5.251v3.938a5.251,5.251,0,0,0,5.251,5.251h1.313a2.626,2.626,0,0,0,2.626-2.626ZM30.195,28.882a5.251,5.251,0,0,0,5.251-5.251V19.692a5.251,5.251,0,0,0-5.251-5.251H28.882a2.626,2.626,0,0,0-2.626,2.626v9.19a2.626,2.626,0,0,0,2.626,2.626ZM21.005,0C9.287,0,.376,9.75,0,21.005v1.313a1.312,1.312,0,0,0,1.313,1.313H2.626a1.312,1.312,0,0,0,1.313-1.313V21.005a17.067,17.067,0,0,1,34.133,0h-.01c.007.2.01,13.6.01,13.6A3.469,3.469,0,0,1,34.6,38.072H26.256a3.938,3.938,0,0,0-3.938-3.938H19.692a3.938,3.938,0,1,0,0,7.877H34.6A7.408,7.408,0,0,0,42.01,34.6v-13.6C41.635,9.75,32.724,0,21.005,0Z" fill="rgba(180,149,227,0.78)"/>
</svg>
